# xmcd CD database file
#
# Track frame offsets:
#	150
#	22088
#	51227
#	70975
#	89471
#	111049
#	133257
#	159565
#	181284
#	200033
#	218966
#	244591
#	270668
#	292748
#
# Disc length: 4137 seconds
#
# Revision: 0
# Processed by: cddbd v1.5PL3 Copyright (c) Steve Scherf et al.
# Submitted via: CDex 1.50
#
DISCID=d410270e
DTITLE=Ryan Burrage - Toulouse Street Blues
DYEAR=2003
DGENRE=Jazz
TTITLE0=It's All Because of You
TTITLE1=Cakewalkin' Babies from Home
TTITLE2=Crescent City Serenade
TTITLE3=Shine
TTITLE4=Blue Horizon
TTITLE5=Way Down Yonder in New Orleans
TTITLE6=Please Don't Talk About Me When I'm Gone
TTITLE7=Toulouse Street Blues
TTITLE8=Keepin' Out of Mischief Now
TTITLE9=Nobody's Sweetheart
TTITLE10=I Believe in Miracles
TTITLE11=My Monday Date
TTITLE12=How Come You Do Me Like You Do?
TTITLE13=The Accidental Stomp
EXTD=YEAR: 2003
EXTT0=
EXTT1=
EXTT2=
EXTT3=
EXTT4=
EXTT5=
EXTT6=
EXTT7=
EXTT8=
EXTT9=
EXTT10=
EXTT11=
EXTT12=
EXTT13=
PLAYORDER=
